<?xml version="1.0" encoding="UTF-8"?>
<!DOCTYPE svg PUBLIC "-//W3C//DTD SVG 1.1//EN" "http://www.w3.org/Graphics/SVG/1.1/DTD/svg11.dtd">
<!-- Creator: CorelDRAW -->
<svg xmlns="http://www.w3.org/2000/svg" xml:space="preserve" width="1.70666in" height="1.70666in" version="1.1" style="shape-rendering:geometricPrecision; text-rendering:geometricPrecision; image-rendering:optimizeQuality; fill-rule:evenodd; clip-rule:evenodd"
viewBox="0 0 1707 1707"
 xmlns:xlink="http://www.w3.org/1999/xlink">
 <defs>
  <style type="text/css">
   <![CDATA[
    .fil0 {fill:#000002}
   ]]>
  </style>
 </defs>
 <g id="Layer_x0020_1">
  <metadata id="CorelCorpID_0Corel-Layer"/>
  <path class="fil0" d="M1347 1707l-158 0 0 -162c0,-7 -6,-13 -13,-13 -7,0 -12,6 -12,13l0 162 -626 0 0 -162c0,-7 -5,-13 -12,-13 -7,0 -13,6 -13,13l0 162 -153 0c-14,0 -26,-12 -26,-26l0 -219c0,-134 135,-244 300,-244l14 0c6,0 12,2 16,6l189 151 189 -151c5,-4 11,-6 16,-6l15 0c165,0 299,110 299,244l0 219c0,14 -11,26 -25,26z"/>
  <g id="_293022008">
   <g>
    <path class="fil0" d="M1066 1270c-6,0 -12,-2 -17,-6l-98 -78c-11,-9 -13,-25 -4,-37 9,-11 25,-13 36,-4l99 79c11,9 13,25 4,36 -5,7 -13,10 -20,10z"/>
   </g>
   <g>
    <path class="fil0" d="M648 1270c-7,0 -15,-3 -20,-10 -9,-11 -7,-27 4,-36l99 -79c11,-9 27,-7 36,4 9,12 7,28 -4,37l-99 78c-4,4 -10,6 -16,6z"/>
   </g>
  </g>
  <g id="_293021864">
   <path class="fil0" d="M857 1216c-159,0 -288,-129 -288,-288 0,-158 129,-287 288,-287 158,0 287,129 287,287 0,159 -129,288 -287,288zm0 -523c-130,0 -236,105 -236,235 0,130 106,236 236,236 130,0 236,-106 236,-236 0,-130 -106,-235 -236,-235z"/>
  </g>
  <path class="fil0" d="M1424 1116c-109,0 -198,-89 -198,-199 0,-14 11,-25 26,-25l344 0c15,0 26,11 26,25 0,110 -89,199 -198,199z"/>
  <path class="fil0" d="M1596 943c-10,0 -19,-5 -23,-15l-149 -321 -149 321c-6,13 -21,19 -34,13 -13,-6 -19,-22 -13,-34l172 -372c5,-10 14,-15 24,-15 10,0 19,5 23,15l173 372c6,12 0,28 -13,34 -3,1 -7,2 -11,2z"/>
  <path class="fil0" d="M283 1116c-110,0 -198,-89 -198,-199 0,-14 11,-25 25,-25l345 0c14,0 26,11 26,25 0,110 -89,199 -198,199z"/>
  <path class="fil0" d="M455 943c-10,0 -19,-5 -23,-15l-149 -321 -149 321c-6,13 -21,19 -34,13 -13,-6 -19,-22 -13,-34l172 -372c5,-10 14,-15 24,-15l0 0c10,0 19,5 23,15l173 372c6,12 0,28 -13,34 -4,1 -7,2 -11,2z"/>
  <path class="fil0" d="M1424 571l-1141 0c-40,0 -73,-32 -73,-72 0,-40 33,-73 73,-73l1141 0c40,0 73,33 73,73 0,40 -33,72 -73,72z"/>
  <path class="fil0" d="M758 400l30 -150c20,9 42,15 65,15 24,0 46,-6 66,-15l30 150 -191 0z"/>
  <path class="fil0" d="M853 238c-65,0 -119,-53 -119,-119 0,-65 54,-119 119,-119 66,0 120,54 120,119 0,66 -54,119 -120,119z"/>
 </g>
</svg>
